# xmcd
#
# Track frame offsets: 
#        150
#        21961
#        35275
#        54106
#        72756
#        96791
#        126298
#        141635
#        162028
#
# Disc length: 2376 seconds
#
# Revision: 2
# Processed by: cddbd v1.5.2PL0 Copyright (c) Steve Scherf et al.
# Submitted via: ExactAudioCopy v1.3
#
DISCID=74094609
DTITLE=Boz Scaggs - Out Of The Blues
DYEAR=2018
DGENRE=Blues
TTITLE0=Rock And Stick
TTITLE1=I've Just Got To Forget You
TTITLE2=I've Just Got To Know
TTITLE3=Radiator 110
TTITLE4=Little Miss Night And Day
TTITLE5=On The Beach
TTITLE6=Down In Virginia
TTITLE7=Those Lies
TTITLE8=The Feeling Is Gone
EXTD=
EXTT0=
EXTT1=
EXTT2=
EXTT3=
EXTT4=
EXTT5=
EXTT6=
EXTT7=
EXTT8=
PLAYORDER=
